<mxfile host="65bd71144e">
    <diagram id="cJmlDOybV0Ci7IFUQz7L" name="第 1 页">
        <mxGraphModel dx="756" dy="617" grid="1" gridSize="10" guides="1" tooltips="1" connect="1" arrows="1" fold="1" page="1" pageScale="1" pageWidth="827" pageHeight="1169" math="0" shadow="0">
            <root>
                <mxCell id="0"/>
                <mxCell id="1" parent="0"/>
                <mxCell id="2" value="面向对象软件设计流程" style="text;html=1;align=center;verticalAlign=middle;resizable=0;points=[];autosize=1;strokeColor=#d79b00;fillColor=#ffcd28;gradientColor=#ffa500;" vertex="1" parent="1">
                    <mxGeometry x="230" y="50" width="140" height="20" as="geometry"/>
                </mxCell>
                <mxCell id="5" value="" style="edgeStyle=none;html=1;" edge="1" parent="1" source="3" target="4">
                    <mxGeometry relative="1" as="geometry"/>
                </mxCell>
                <mxCell id="3" value="step1" style="whiteSpace=wrap;html=1;fillColor=#e6d0de;gradientColor=#d5739d;strokeColor=#996185;" vertex="1" parent="1">
                    <mxGeometry x="40" y="110" width="120" height="60" as="geometry"/>
                </mxCell>
                <mxCell id="7" value="" style="edgeStyle=none;html=1;" edge="1" parent="1" source="4" target="6">
                    <mxGeometry relative="1" as="geometry"/>
                </mxCell>
                <mxCell id="4" value="step2" style="whiteSpace=wrap;html=1;fillColor=#dae8fc;gradientColor=#7ea6e0;strokeColor=#6c8ebf;" vertex="1" parent="1">
                    <mxGeometry x="40" y="193" width="120" height="60" as="geometry"/>
                </mxCell>
                <mxCell id="9" value="" style="edgeStyle=none;html=1;" edge="1" parent="1" source="6" target="8">
                    <mxGeometry relative="1" as="geometry"/>
                </mxCell>
                <mxCell id="6" value="step3" style="whiteSpace=wrap;html=1;fillColor=#e6d0de;gradientColor=#d5739d;strokeColor=#996185;" vertex="1" parent="1">
                    <mxGeometry x="40" y="278" width="120" height="60" as="geometry"/>
                </mxCell>
                <mxCell id="11" value="" style="edgeStyle=none;html=1;" edge="1" parent="1" source="8" target="10">
                    <mxGeometry relative="1" as="geometry"/>
                </mxCell>
                <mxCell id="8" value="step4" style="whiteSpace=wrap;html=1;fillColor=#dae8fc;gradientColor=#7ea6e0;strokeColor=#6c8ebf;" vertex="1" parent="1">
                    <mxGeometry x="40" y="364" width="120" height="60" as="geometry"/>
                </mxCell>
                <mxCell id="10" value="step4" style="whiteSpace=wrap;html=1;fillColor=#e6d0de;gradientColor=#d5739d;strokeColor=#996185;" vertex="1" parent="1">
                    <mxGeometry x="40" y="447" width="120" height="60" as="geometry"/>
                </mxCell>
                <mxCell id="12" value="基础服务开发人员&lt;br&gt;1）开发步骤1,3,5&lt;br&gt;&lt;div&gt;&lt;span&gt;2）程 序 主 流 程&lt;/span&gt;&lt;/div&gt;" style="whiteSpace=wrap;html=1;align=center;fillColor=#e6d0de;gradientColor=#d5739d;strokeColor=#996185;" vertex="1" parent="1">
                    <mxGeometry x="280" y="179" width="240" height="60" as="geometry"/>
                </mxCell>
                <mxCell id="13" value="上层应用开发人员&lt;br&gt;1）开 发 步 骤 2,4" style="whiteSpace=wrap;html=1;align=center;fillColor=#dae8fc;gradientColor=#7ea6e0;strokeColor=#6c8ebf;" vertex="1" parent="1">
                    <mxGeometry x="280" y="396" width="240" height="60" as="geometry"/>
                </mxCell>
                <mxCell id="14" value="面向过程软件设计流程" style="text;html=1;align=center;verticalAlign=middle;resizable=0;points=[];autosize=1;strokeColor=#d79b00;fillColor=#ffcd28;gradientColor=#ffa500;" vertex="1" parent="1">
                    <mxGeometry x="240" y="610" width="140" height="20" as="geometry"/>
                </mxCell>
                <mxCell id="15" value="" style="edgeStyle=none;html=1;" edge="1" parent="1" source="16" target="18">
                    <mxGeometry relative="1" as="geometry"/>
                </mxCell>
                <mxCell id="16" value="step1" style="whiteSpace=wrap;html=1;fillColor=#e6d0de;gradientColor=#d5739d;strokeColor=#996185;" vertex="1" parent="1">
                    <mxGeometry x="40" y="640" width="120" height="60" as="geometry"/>
                </mxCell>
                <mxCell id="17" value="" style="edgeStyle=none;html=1;" edge="1" parent="1" source="18" target="20">
                    <mxGeometry relative="1" as="geometry"/>
                </mxCell>
                <mxCell id="18" value="step2" style="whiteSpace=wrap;html=1;fillColor=#dae8fc;gradientColor=#7ea6e0;strokeColor=#6c8ebf;" vertex="1" parent="1">
                    <mxGeometry x="40" y="723" width="120" height="60" as="geometry"/>
                </mxCell>
                <mxCell id="19" value="" style="edgeStyle=none;html=1;" edge="1" parent="1" source="20" target="22">
                    <mxGeometry relative="1" as="geometry"/>
                </mxCell>
                <mxCell id="20" value="step3" style="whiteSpace=wrap;html=1;fillColor=#e6d0de;gradientColor=#d5739d;strokeColor=#996185;" vertex="1" parent="1">
                    <mxGeometry x="40" y="808" width="120" height="60" as="geometry"/>
                </mxCell>
                <mxCell id="21" value="" style="edgeStyle=none;html=1;" edge="1" parent="1" source="22" target="23">
                    <mxGeometry relative="1" as="geometry"/>
                </mxCell>
                <mxCell id="22" value="step4" style="whiteSpace=wrap;html=1;fillColor=#dae8fc;gradientColor=#7ea6e0;strokeColor=#6c8ebf;" vertex="1" parent="1">
                    <mxGeometry x="40" y="894" width="120" height="60" as="geometry"/>
                </mxCell>
                <mxCell id="23" value="step4" style="whiteSpace=wrap;html=1;fillColor=#e6d0de;gradientColor=#d5739d;strokeColor=#996185;" vertex="1" parent="1">
                    <mxGeometry x="40" y="977" width="120" height="60" as="geometry"/>
                </mxCell>
                <mxCell id="24" value="基础服务开发人员&lt;br&gt;1）开发步骤1,3,5&lt;br&gt;&lt;div&gt;&lt;br&gt;&lt;/div&gt;" style="whiteSpace=wrap;html=1;align=center;fillColor=#e6d0de;gradientColor=#d5739d;strokeColor=#996185;" vertex="1" parent="1">
                    <mxGeometry x="280" y="720" width="240" height="60" as="geometry"/>
                </mxCell>
                <mxCell id="25" value="上层应用开发人员&lt;br&gt;1）开 发 步 骤 2,4&lt;br&gt;2）程 序 主 流&amp;nbsp; 程" style="whiteSpace=wrap;html=1;align=center;fillColor=#dae8fc;gradientColor=#7ea6e0;strokeColor=#6c8ebf;" vertex="1" parent="1">
                    <mxGeometry x="280" y="937" width="240" height="60" as="geometry"/>
                </mxCell>
                <mxCell id="26" value="早绑定与晚绑定" style="text;html=1;align=center;verticalAlign=middle;resizable=0;points=[];autosize=1;strokeColor=#d79b00;fillColor=#ffcd28;gradientColor=#ffa500;" vertex="1" parent="1">
                    <mxGeometry x="200" y="1149" width="100" height="20" as="geometry"/>
                </mxCell>
                <mxCell id="27" value="library" style="whiteSpace=wrap;html=1;fillColor=#f5f5f5;gradientColor=#b3b3b3;strokeColor=#666666;" vertex="1" parent="1">
                    <mxGeometry x="80" y="1200" width="120" height="60" as="geometry"/>
                </mxCell>
                <mxCell id="29" value="" style="edgeStyle=none;html=1;" edge="1" parent="1" source="28" target="27">
                    <mxGeometry relative="1" as="geometry"/>
                </mxCell>
                <mxCell id="28" value="application" style="whiteSpace=wrap;html=1;fillColor=#d5e8d4;gradientColor=#97d077;strokeColor=#82b366;" vertex="1" parent="1">
                    <mxGeometry x="80" y="1320" width="120" height="60" as="geometry"/>
                </mxCell>
                <mxCell id="32" value="" style="edgeStyle=none;html=1;" edge="1" parent="1" source="30" target="31">
                    <mxGeometry relative="1" as="geometry"/>
                </mxCell>
                <mxCell id="30" value="library" style="whiteSpace=wrap;html=1;fillColor=#f5f5f5;gradientColor=#b3b3b3;strokeColor=#666666;" vertex="1" parent="1">
                    <mxGeometry x="294" y="1200" width="120" height="60" as="geometry"/>
                </mxCell>
                <mxCell id="31" value="library" style="whiteSpace=wrap;html=1;fillColor=#d5e8d4;gradientColor=#97d077;strokeColor=#82b366;" vertex="1" parent="1">
                    <mxGeometry x="294" y="1320" width="120" height="60" as="geometry"/>
                </mxCell>
                <mxCell id="33" value="早绑定" style="text;html=1;align=center;verticalAlign=middle;resizable=0;points=[];autosize=1;strokeColor=#b85450;fillColor=#f8cecc;gradientColor=#ea6b66;" vertex="1" parent="1">
                    <mxGeometry x="140" y="1280" width="50" height="20" as="geometry"/>
                </mxCell>
                <mxCell id="34" value="晚绑定" style="text;html=1;align=center;verticalAlign=middle;resizable=0;points=[];autosize=1;strokeColor=#6c8ebf;fillColor=#dae8fc;gradientColor=#7ea6e0;" vertex="1" parent="1">
                    <mxGeometry x="356" y="1280" width="50" height="20" as="geometry"/>
                </mxCell>
                <mxCell id="36" value="AbstractClass" style="swimlane;" vertex="1" parent="1">
                    <mxGeometry x="80" y="1524" width="200" height="126" as="geometry"/>
                </mxCell>
                <mxCell id="38" value="PrimitiveOperation1()" style="text;html=1;align=center;verticalAlign=middle;resizable=0;points=[];autosize=1;strokeColor=none;fillColor=none;" vertex="1" parent="36">
                    <mxGeometry x="31" y="70" width="130" height="20" as="geometry"/>
                </mxCell>
                <mxCell id="39" value="PrimitiveOperation2()" style="text;html=1;align=center;verticalAlign=middle;resizable=0;points=[];autosize=1;strokeColor=none;fillColor=none;" vertex="1" parent="36">
                    <mxGeometry x="32" y="100" width="130" height="20" as="geometry"/>
                </mxCell>
                <mxCell id="44" value="" style="endArrow=block;dashed=1;endFill=0;endSize=12;html=1;" edge="1" parent="36">
                    <mxGeometry width="160" relative="1" as="geometry">
                        <mxPoint x="150" y="36" as="sourcePoint"/>
                        <mxPoint x="310" y="36" as="targetPoint"/>
                    </mxGeometry>
                </mxCell>
                <mxCell id="37" value="TemplateMethod()" style="text;html=1;align=center;verticalAlign=middle;resizable=0;points=[];autosize=1;strokeColor=none;fillColor=none;" vertex="1" parent="1">
                    <mxGeometry x="119" y="1550" width="110" height="20" as="geometry"/>
                </mxCell>
                <mxCell id="46" value="" style="edgeStyle=none;html=1;" edge="1" parent="1" source="40">
                    <mxGeometry relative="1" as="geometry">
                        <mxPoint x="177" y="1660" as="targetPoint"/>
                    </mxGeometry>
                </mxCell>
                <mxCell id="40" value="ConcreteClass" style="swimlane;" vertex="1" parent="1">
                    <mxGeometry x="80" y="1710" width="200" height="130" as="geometry"/>
                </mxCell>
                <mxCell id="41" value="PrimitiveOperation1()" style="text;html=1;align=center;verticalAlign=middle;resizable=0;points=[];autosize=1;strokeColor=none;fillColor=none;" vertex="1" parent="40">
                    <mxGeometry x="31" y="56" width="130" height="20" as="geometry"/>
                </mxCell>
                <mxCell id="42" value="PrimitiveOperation2()" style="text;html=1;align=center;verticalAlign=middle;resizable=0;points=[];autosize=1;strokeColor=none;fillColor=none;" vertex="1" parent="40">
                    <mxGeometry x="32" y="92" width="130" height="20" as="geometry"/>
                </mxCell>
                <mxCell id="45" value="PrimitiveOperation1()&lt;br&gt;PrimitiveOperation2()&lt;br&gt;..." style="shape=note;whiteSpace=wrap;html=1;backgroundOutline=1;darkOpacity=0.05;" vertex="1" parent="1">
                    <mxGeometry x="400" y="1524" width="140" height="104" as="geometry"/>
                </mxCell>
            </root>
        </mxGraphModel>
    </diagram>
</mxfile>